<svg width="24" height="24" viewBox="0 0 24 24" fill="none" xmlns="http://www.w3.org/2000/svg">
    <path d="M8.93597 15.8747L7.03033 17.7803C6.73744 18.0732 6.26256 18.0732 5.96967 17.7803C5.67678 17.4874 5.67678 17.0126 5.96967 16.7197L7.56016 15.1292C6.45778 14.3879 5.50352 13.3454 5 12C6.125 8.99402 9.5 7.5 11.75 7.5C12.5898 7.5 13.5863 7.70813 14.564 8.12531L16.4697 6.21967C16.7626 5.92678 17.2374 5.92678 17.5303 6.21967C17.8232 6.51256 17.8232 6.98744 17.5303 7.28033C11.8037 13.0112 8.93891 15.8759 8.93597 15.8747ZM10.1376 16.2829L11.4367 14.9838C11.5397 14.9945 11.6442 15 11.75 15C13.4069 15 14.75 13.6569 14.75 12C14.75 11.8942 14.7445 11.7896 14.7338 11.6867L16.8409 9.57956C17.5505 10.2322 18.1403 11.0388 18.5 12C17.375 15.006 14 16.5 11.75 16.5C11.255 16.5 10.7056 16.4277 10.1376 16.2829ZM9.16536 13.524L10.3008 12.3885C10.2677 12.2646 10.25 12.1344 10.25 12C10.25 11.1716 10.9216 10.5 11.75 10.5C11.8844 10.5 12.0146 10.5177 12.1385 10.5508L13.274 9.41536C12.8273 9.15145 12.3064 9 11.75 9C10.0931 9 8.75 10.3431 8.75 12C8.75 12.5564 8.90145 13.0773 9.16536 13.524Z" fill="#002BC2"/>
</svg>
