<svg width="24" height="24" viewBox="0 0 24 24" fill="none" xmlns="http://www.w3.org/2000/svg">
    <path d="M15.75 9.33333H15.125V8.09524C15.125 6.38667 13.725 5 12 5C10.275 5 8.875 6.38667 8.875 8.09524V9.33333H8.25C7.55937 9.33333 7 9.88738 7 10.5714V16.7619C7 17.446 7.55937 18 8.25 18H15.75C16.4406 18 17 17.446 17 16.7619V10.5714C17 9.88738 16.4406 9.33333 15.75 9.33333ZM12 14.9048C11.3094 14.9048 10.75 14.3507 10.75 13.6667C10.75 12.9826 11.3094 12.4286 12 12.4286C12.6906 12.4286 13.25 12.9826 13.25 13.6667C13.25 14.3507 12.6906 14.9048 12 14.9048ZM13.9375 9.33333H10.0625V8.09524C10.0625 7.03667 10.9313 6.17619 12 6.17619C13.0687 6.17619 13.9375 7.03667 13.9375 8.09524V9.33333Z" fill="#688392"/>
</svg>
